<?xml version="1.0" standalone="no"?><svg xmlns="http://www.w3.org/2000/svg" viewBox="0 0 1440 320"><path fill="#1976d2" fill-opacity="1" d="M0,32L34.3,48C68.6,64,137,96,206,133.3C274.3,171,343,213,411,229.3C480,245,549,235,617,202.7C685.7,171,754,117,823,133.3C891.4,149,960,235,1029,240C1097.1,245,1166,171,1234,149.3C1302.9,128,1371,160,1406,176L1440,192L1440,320L1405.7,320C1371.4,320,1303,320,1234,320C1165.7,320,1097,320,1029,320C960,320,891,320,823,320C754.3,320,686,320,617,320C548.6,320,480,320,411,320C342.9,320,274,320,206,320C137.1,320,69,320,34,320L0,320Z"></path></svg>