<?xml version="1.0" standalone="no"?><svg xmlns="http://www.w3.org/2000/svg" viewBox="0 0 1440 320"><path fill="#1976d2" fill-opacity="1" d="M0,256L34.3,256C68.6,256,137,256,206,256C274.3,256,343,256,411,218.7C480,181,549,107,617,112C685.7,117,754,203,823,224C891.4,245,960,203,1029,160C1097.1,117,1166,75,1234,90.7C1302.9,107,1371,181,1406,218.7L1440,256L1440,0L1405.7,0C1371.4,0,1303,0,1234,0C1165.7,0,1097,0,1029,0C960,0,891,0,823,0C754.3,0,686,0,617,0C548.6,0,480,0,411,0C342.9,0,274,0,206,0C137.1,0,69,0,34,0L0,0Z"></path></svg>